<?xml version="1.0" encoding="utf-8"?>
<!-- Generator: Adobe Illustrator 21.1.0, SVG Export Plug-In . SVG Version: 6.00 Build 0)  -->
<svg version="1.1" id="Layer_1" xmlns="http://www.w3.org/2000/svg" xmlns:xlink="http://www.w3.org/1999/xlink" x="0px" y="0px"
	 viewBox="0 0 20 20" style="enable-background:new 0 0 20 20;" xml:space="preserve">
<style type="text/css">
	.st0{fill:#9E9E9E;}
</style>
<title>C6B5EBFF-5AE5-4018-8464-A5986BDFEAD0</title>
<desc>Created with sketchtool.</desc>
<g id="KBVB">
	<g id="Nieuws_Detail" transform="translate(-423.000000, -468.000000)">
		<g id="Date" transform="translate(423.000000, 464.000000)">
			<path id="icon-calendar" class="st0" d="M17.8,6.2c0.6,0,1.1,0.2,1.6,0.7s0.7,1,0.7,1.6v13.3c0,0.6-0.2,1.1-0.7,1.6
				s-1,0.7-1.6,0.7H2.2c-0.6,0-1.1-0.2-1.6-0.7S0,22.3,0,21.8V8.5c0-0.6,0.2-1.1,0.7-1.6s1-0.7,1.6-0.7h1v2.2h3.4V6.2h6.6v2.2h3.4
				V6.2H17.8z M17.8,21.8V13H2.2v8.8H17.8z M5.9,4v3.8H4.3V4H5.9z M15.7,4v3.8h-1.6V4H15.7z"/>
		</g>
	</g>
</g>
</svg>
